<svg width="24" height="24" viewBox="0 0 24 24" fill="none" xmlns="http://www.w3.org/2000/svg">
<path d="M5.63602 18.364C4.80028 17.5283 4.13733 16.5361 3.68503 15.4442C3.23273 14.3522 2.99994 13.1819 2.99994 12C2.99994 10.8181 3.23273 9.64775 3.68503 8.55581C4.13733 7.46387 4.80028 6.47172 5.63602 5.63599M18.364 5.63599C19.1998 6.47172 19.8627 7.46387 20.315 8.55581C20.7673 9.64775 21.0001 10.8181 21.0001 12C21.0001 13.1819 20.7673 14.3522 20.315 15.4442C19.8627 16.5361 19.1998 17.5283 18.364 18.364M8.46402 15.535C7.52666 14.5973 7.00008 13.3258 7.00008 12C7.00008 10.6742 7.52666 9.40262 8.46402 8.46499M15.536 8.46499C16.4734 9.40262 16.9999 10.6742 16.9999 12C16.9999 13.3258 16.4734 14.5973 15.536 15.535M13 12C13 12.2652 12.8947 12.5196 12.7071 12.7071C12.5196 12.8946 12.2652 13 12 13C11.7348 13 11.4804 12.8946 11.2929 12.7071C11.1054 12.5196 11 12.2652 11 12C11 11.7348 11.1054 11.4804 11.2929 11.2929C11.4804 11.1053 11.7348 11 12 11C12.2652 11 12.5196 11.1053 12.7071 11.2929C12.8947 11.4804 13 11.7348 13 12Z" stroke="black" stroke-width="2" stroke-linecap="round" stroke-linejoin="round"/>
</svg>
